<?xml version="1.0" standalone="no"?>
<!DOCTYPE svg PUBLIC "-//W3C//DTD SVG 20010904//EN"
 "http://www.w3.org/TR/2001/REC-SVG-20010904/DTD/svg10.dtd">
<svg version="1.0" xmlns="http://www.w3.org/2000/svg"
 width="1024.000000pt" height="1024.000000pt" viewBox="0 0 1024.000000 1024.000000"
 preserveAspectRatio="xMidYMid meet">

<g transform="translate(0.000000,1024.000000) scale(0.100000,-0.100000)"
fill="#ff8800" stroke="none">
<path d="M5050 8024 c-295 -25 -496 -63 -708 -133 -399 -131 -691 -314 -1056
-661 -213 -201 -345 -301 -796 -598 -535 -353 -617 -431 -671 -640 -22 -87
-34 -243 -49 -617 -14 -380 -50 -627 -156 -1075 -60 -252 -62 -286 -23 -361
44 -87 109 -114 253 -106 156 8 259 49 401 158 86 66 120 79 202 79 387 1 736
134 974 369 73 73 93 100 132 181 57 119 80 213 112 465 53 419 117 738 184
911 61 159 84 153 53 -14 -54 -290 -63 -498 -36 -807 21 -246 21 -500 1 -590
-64 -282 -225 -491 -472 -614 -49 -24 -85 -48 -85 -57 0 -30 270 -189 480
-282 521 -231 1205 -370 1835 -375 l220 -2 7 110 c23 370 77 608 193 853 186
390 488 673 984 921 150 76 261 122 531 223 118 43 274 108 345 143 523 253
785 622 884 1246 40 248 62 648 41 759 -41 230 -216 356 -465 335 -176 -15
-440 -75 -890 -204 -420 -119 -620 -161 -775 -161 -186 0 -282 40 -435 181
-211 194 -407 290 -691 339 -115 20 -413 34 -524 24z m727 -669 c174 -81 258
-319 161 -458 -49 -69 -171 -89 -265 -42 -98 49 -182 167 -198 277 -14 95 36
202 109 234 50 22 134 17 193 -11z"/>
<path d="M3022 3715 c-46 -58 -141 -400 -158 -567 -8 -82 -8 -81 106 -157 650
-434 1658 -709 2706 -738 l232 -6 15 24 c20 31 43 225 58 485 16 270 38 247
-243 256 -915 31 -1856 275 -2531 656 -70 40 -136 72 -146 72 -11 0 -28 -11
-39 -25z"/>
<path d="M5814 2059 c-17 -5 -49 -28 -71 -52 -160 -174 -125 -651 53 -738 111
-53 220 38 260 219 25 111 16 314 -18 404 -32 86 -70 135 -122 159 -45 20 -56
21 -102 8z"/>
</g>
</svg>
